<svg width="36" height="36" viewBox="0 0 36 36" fill="none" xmlns="http://www.w3.org/2000/svg">
<circle cx="18" cy="18" r="17.75" fill="white" stroke="black" stroke-width="0.5"/>
<g clip-path="url(#clip0_240_25)">
<path d="M13.2215 15.9715C13.2215 16.4225 13.2507 16.7882 13.3017 17.0564C13.3664 17.3581 13.4443 17.6514 13.5347 17.9339C13.5712 18.0314 13.5857 18.1289 13.5857 18.2143C13.5857 18.3361 13.542 18.458 13.4473 18.58L12.9885 19.0919C12.9229 19.1651 12.8573 19.2016 12.799 19.2016C12.7262 19.2016 12.6533 19.1406 12.5805 19.0309C12.4823 18.8544 12.3945 18.6626 12.3183 18.458C12.2454 18.251 12.1726 18.0192 12.0925 17.7389C11.5243 18.8602 10.8104 19.421 9.95091 19.421C9.33908 19.421 8.85099 19.1284 8.49404 18.5434C8.13717 17.9582 7.95508 17.1782 7.95508 16.2031C7.95508 15.1671 8.1736 14.3261 8.61795 13.6922C9.06221 13.0584 9.6523 12.7415 10.4026 12.7415C10.6502 12.7415 10.9052 12.778 11.1746 12.839C11.4442 12.8999 11.721 12.9974 12.0124 13.1071V12.2174C12.0124 11.2909 11.8958 10.645 11.67 10.2671C11.4369 9.88925 11.0435 9.70635 10.4826 9.70635C10.2277 9.70635 9.96552 9.75524 9.69595 9.86495C9.42647 9.97452 9.16421 10.1087 8.90925 10.2794C8.79273 10.3646 8.70534 10.4134 8.6543 10.4378C8.60334 10.4623 8.56691 10.4743 8.53777 10.4743C8.43578 10.4743 8.38482 10.3524 8.38482 10.0965V9.49915C8.38482 9.30417 8.39943 9.15793 8.43577 9.07266C8.47221 8.98725 8.53777 8.90198 8.63977 8.81672C8.89473 8.59729 9.20065 8.41439 9.55752 8.26815C9.91456 8.1097 10.2933 8.03665 10.694 8.03665C11.5608 8.03665 12.1946 8.36564 12.6025 9.02392C13.0031 9.68205 13.2071 10.6815 13.2071 12.0224V15.9715H13.2217H13.2215ZM10.2641 17.8242C10.5046 17.8242 10.7522 17.7512 11.0144 17.6048C11.2766 17.4585 11.5098 17.1904 11.7064 16.8247C11.823 16.5932 11.9104 16.3373 11.954 16.0447C11.9978 15.7522 12.0269 15.3986 12.0269 14.9842V14.4723C11.806 14.3823 11.5823 14.3132 11.3567 14.2651C11.1296 14.2168 10.901 14.1924 10.672 14.1919C10.184 14.1919 9.82708 14.3504 9.58673 14.6795C9.3463 15.0086 9.22978 15.4718 9.22978 16.0812C9.22978 16.654 9.31717 17.0807 9.49925 17.3733C9.67412 17.678 9.92908 17.8242 10.2641 17.8242ZM16.1133 19.1406C15.9822 19.1406 15.8948 19.1041 15.8366 19.0187C15.7783 18.9456 15.7273 18.775 15.6836 18.5434L13.9719 9.12141C13.928 8.87754 13.9062 8.71908 13.9062 8.63381C13.9062 8.43883 13.9645 8.32898 14.0811 8.32898H14.7949C14.9333 8.32898 15.028 8.36564 15.079 8.45091C15.1373 8.5241 15.181 8.69478 15.2247 8.92629L16.4484 16.9954L17.5847 8.92629C17.6212 8.68256 17.6649 8.5241 17.7231 8.45091C17.7814 8.37787 17.8834 8.32912 18.0146 8.32912H18.5973C18.7356 8.32912 18.8304 8.36564 18.8886 8.45091C18.9469 8.5241 18.9979 8.69478 19.027 8.92629L20.178 17.0929L21.438 8.92629C21.4817 8.68256 21.5327 8.5241 21.5837 8.45091C21.642 8.37787 21.7367 8.32912 21.8678 8.32912H22.5452C22.6618 8.32912 22.7274 8.42661 22.7274 8.63381C22.7274 8.69478 22.7201 8.75575 22.7127 8.8288C22.7054 8.90198 22.6909 8.99948 22.6618 9.13363L20.9062 18.5555C20.8626 18.7994 20.8116 18.9579 20.7533 19.0309C20.695 19.1041 20.6003 19.1528 20.4766 19.1528H19.8501C19.7117 19.1528 19.617 19.1163 19.5587 19.0309C19.5004 18.9456 19.4494 18.7872 19.4203 18.5434L18.2912 10.6815L17.1694 18.5311C17.1331 18.775 17.0893 18.9334 17.0311 19.0187C16.9728 19.1041 16.8708 19.1406 16.7398 19.1406H16.1133H16.1133ZM25.4735 19.4697C25.0947 19.4697 24.716 19.3966 24.3518 19.2503C23.9875 19.1041 23.7035 18.9455 23.5141 18.7629C23.3975 18.653 23.3174 18.5312 23.2883 18.4215C23.2599 18.3139 23.2451 18.1977 23.2446 18.0802V17.4585C23.2446 17.2026 23.3028 17.0807 23.4121 17.0807C23.4567 17.0809 23.501 17.0933 23.5433 17.1173C23.5869 17.1418 23.6525 17.1904 23.7254 17.2391C23.9826 17.4285 24.2512 17.5715 24.5266 17.6658C24.8119 17.7626 25.1023 17.8116 25.3934 17.812C25.8523 17.812 26.2093 17.678 26.4569 17.4098C26.7046 17.1416 26.8357 16.7517 26.8357 16.2519C26.8357 15.9106 26.7701 15.6302 26.639 15.3986C26.5079 15.1671 26.2602 14.9599 25.9034 14.7648L24.8471 14.2164C24.3154 13.936 23.9221 13.5216 23.6816 12.973C23.4413 12.4367 23.3174 11.8395 23.3174 11.2057C23.3174 10.6938 23.383 10.2427 23.5141 9.85259C23.6452 9.46263 23.8201 9.12141 24.0386 8.85324C24.2571 8.57285 24.5047 8.36564 24.7961 8.21941C25.0874 8.07317 25.3934 8.01221 25.7139 8.01221C25.8741 8.01221 26.0417 8.02443 26.202 8.06095C26.3695 8.09748 26.5225 8.14622 26.6754 8.19497C26.8211 8.25593 26.9595 8.3169 27.0907 8.39009C27.2218 8.46314 27.3237 8.53632 27.3966 8.60937C27.4986 8.707 27.5714 8.80449 27.6151 8.91421C27.6588 9.0117 27.6807 9.14571 27.6807 9.31639V9.88925C27.6807 10.1452 27.6224 10.2794 27.5131 10.2794C27.4548 10.2794 27.3601 10.2305 27.2364 10.133C26.8211 9.81606 26.3549 9.65761 25.8378 9.65761C25.4226 9.65761 25.0947 9.76732 24.8689 9.99897C24.6432 10.2305 24.5266 10.5841 24.5266 11.0837C24.5266 11.4251 24.5994 11.7176 24.7451 11.9492C24.8908 12.1807 25.1603 12.4124 25.5464 12.6196L26.5807 13.1681C27.1052 13.4485 27.484 13.8385 27.7098 14.3381C27.9356 14.838 28.0449 15.4108 28.0449 16.0447C28.0449 16.5688 27.9793 17.0441 27.8554 17.4585C27.7244 17.873 27.5495 18.2386 27.3237 18.5312C27.0979 18.8359 26.8284 19.0553 26.5152 19.2138C26.1874 19.3845 25.845 19.4697 25.4735 19.4697Z" fill="#252F3E"/>
<path d="M26.8495 25.3936C24.4531 28.3555 20.9712 29.9279 17.9775 29.9279C13.7817 29.9279 10.0013 27.3316 7.14588 23.0167C6.92005 22.6755 7.12396 22.2124 7.39344 22.4804C10.482 25.479 14.2916 27.2951 18.2324 27.2951C20.8911 27.2951 23.8121 26.3688 26.5 24.4673C26.9006 24.1624 27.2429 24.9061 26.8495 25.3936ZM27.8475 23.4921C27.5416 22.834 25.8225 23.1752 25.0431 23.3336C24.81 23.3825 24.7735 23.0412 24.9848 22.7852C26.3542 21.1762 28.6051 21.6395 28.8673 22.1757C29.1296 22.7242 28.7944 26.4906 27.5124 28.2946C27.3158 28.575 27.1264 28.4287 27.2138 28.0631C27.5051 26.8562 28.1535 24.1381 27.8475 23.4921Z" fill="#FF9900"/>
</g>
<defs>
<clipPath id="clip0_240_25">
<rect width="22" height="22" fill="white" transform="translate(7 8)"/>
</clipPath>
</defs>
</svg>
