<svg width="36" height="36" viewBox="0 0 36 36" fill="none" xmlns="http://www.w3.org/2000/svg">
<circle cx="18" cy="18" r="17.75" fill="white" stroke="#019BC6" stroke-width="0.5"/>
<path d="M18.4378 15.2887H20.7615V17.6644H21.9364C22.4859 17.6619 23.0313 17.5706 23.5517 17.3939C23.8249 17.3034 24.0879 17.1847 24.3365 17.0396C24.0185 16.5994 23.83 16.0791 23.7922 15.5373C23.6944 14.7468 23.8974 13.9483 24.3609 13.3005L24.6047 13.0178L24.8955 13.2518C25.6669 13.8173 26.1895 14.6593 26.354 15.6015C27.2508 15.3261 28.2201 15.4163 29.0507 15.8526L29.37 16.0362L29.2018 16.3612C28.8616 16.934 28.359 17.3928 27.7577 17.6797C27.1564 17.9665 26.4835 18.0684 25.8242 17.9724C23.8092 22.9839 19.429 25.3564 14.1169 25.3564C11.3723 25.3564 8.85516 24.3302 7.42109 21.8959L7.39753 21.8561L7.19278 21.4344C6.72052 20.3606 6.53599 19.1823 6.65734 18.0154L6.68985 17.6636H8.67641V15.2887H11.001V12.9625H15.6493V10.6404H18.4378V15.2887Z" fill="#019BC6"/>
<path d="M14.7548 24.9606C13.618 24.4762 12.7066 23.5795 12.2036 22.4508C11.6027 22.6116 10.9857 22.705 10.3641 22.7295C10.0933 22.7446 9.81024 22.7522 9.51503 22.7522C9.1727 22.7522 8.81222 22.7422 8.43359 22.7221C9.16465 23.4833 10.051 24.0782 11.0324 24.4664C12.0137 24.8546 13.0672 25.027 14.1211 24.972C14.3334 24.972 14.5447 24.9682 14.7548 24.9606ZM10.7525 15.8435H10.915V17.523H10.7525V15.8435ZM10.447 15.8435H10.6095V17.523H10.4437V15.8435H10.447ZM10.1415 15.8435H10.304V17.523H10.1415V15.8435ZM9.83597 15.8435H9.99847V17.523H9.83597V15.8435ZM9.53047 15.8435H9.69297V17.523H9.53047V15.8435ZM9.23147 15.8435H9.39397V17.523H9.23147V15.8435ZM9.06247 15.6761H11.0791V17.6903H9.06247V15.6761ZM11.3854 13.3516H13.4004V15.3658H11.3887L11.3854 13.3516ZM13.073 13.5198H13.2355V15.1984H13.073V13.5198ZM12.7675 13.5198H12.93V15.1984H12.7675V13.5198ZM12.462 13.5198H12.6245V15.1984H12.462V13.5198ZM12.1565 13.5198H12.319V15.1984H12.1565V13.5198ZM11.851 13.5198H12.0135V15.1984H11.851V13.5198ZM11.552 13.5198H11.7145V15.1984H11.552V13.5198ZM11.3838 15.6753H13.3988V17.6903H11.3887V15.6761L11.3838 15.6753ZM13.0713 15.8435H13.2338V17.523H13.0713V15.8435ZM12.7658 15.8435H12.9283V17.523H12.7658V15.8435ZM12.4603 15.8435H12.6228V17.523H12.4603V15.8435ZM12.1548 15.8435H12.3173V17.523H12.1548V15.8435ZM11.8493 15.8435H12.0118V17.523H11.8493V15.8435ZM11.5503 15.8435H11.7128V17.523H11.5503V15.8435ZM13.7067 15.6753H15.725V17.6903H13.71V15.6761L13.7067 15.6753ZM15.3935 15.8435H15.5625V17.523H15.4L15.3935 15.8435ZM15.088 15.8435H15.2505V17.523H15.088V15.8435ZM14.7825 15.8435H14.945V17.523H14.7825V15.8435ZM14.477 15.8435H14.6395V17.523H14.477V15.8435ZM14.1715 15.8435H14.334V17.523H14.1715V15.8435ZM13.8725 15.8435H14.035V17.523H13.8725V15.8435ZM13.7051 13.3516H15.725V15.3658H13.71V13.3516H13.7051ZM15.3918 13.5198H15.5625V15.1984H15.4L15.3918 13.5198ZM15.0863 13.5198H15.2488V15.1984H15.0863V13.5198ZM14.7808 13.5198H14.9433V15.1984H14.7808V13.5198ZM14.4753 13.5198H14.6378V15.1984H14.4753V13.5198ZM14.1698 13.5198H14.3323V15.1984H14.1698V13.5198ZM13.8708 13.5198H14.0333V15.1984H13.8708V13.5198ZM16.0272 15.6753H18.0414V17.6903H16.0264V15.6761L16.0272 15.6753ZM17.714 15.8435H17.8765V17.523H17.714V15.8435ZM17.4085 15.8435H17.571V17.523H17.4085V15.8435ZM17.103 15.8435H17.2655V17.523H17.103V15.8435ZM16.7975 15.8435H16.96V17.523H16.7975V15.8435ZM16.492 15.8435H16.6545V17.523H16.492V15.8435ZM16.193 15.8435H16.349V17.523H16.1865V15.8435H16.193ZM16.0256 13.3516H18.0398V15.3658H16.0248V13.3516H16.0256ZM17.7123 13.5198H17.8748V15.1984H17.7123V13.5198ZM17.4068 13.5198H17.5693V15.1984H17.4068V13.5198ZM17.1013 13.5198H17.2638V15.1984H17.1013V13.5198ZM16.7958 13.5198H16.9583V15.1984H16.7958V13.5198ZM16.4903 13.5198H16.6528V15.1984H16.4903V13.5198ZM16.1913 13.5198H16.3473V15.1984H16.1848V13.5198H16.1913ZM16.024 11.0278H18.0382V13.0436H16.0232V11.0278H16.024ZM17.7107 11.1952H17.8732V12.8738H17.7107V11.1952ZM17.4052 11.1952H17.5677V12.8738H17.4052V11.1952ZM17.0997 11.1952H17.2622V12.8738H17.0997V11.1952ZM16.7942 11.1952H16.9567V12.8738H16.7942V11.1952ZM16.4887 11.1952H16.6512V12.8738H16.4887V11.1952ZM16.1897 11.1952H16.3457V12.8738H16.1832V11.1952H16.1897ZM18.3461 15.6753H20.3603V17.6903H18.3453V15.6761L18.3461 15.6753ZM20.0328 15.8435H20.1913V17.523H20.0288V15.8435H20.0328ZM19.7273 15.8435H19.8947V17.523H19.7273V15.8435ZM19.4218 15.8435H19.5843V17.523H19.4218V15.8435ZM19.1163 15.8435H19.2788V17.523H19.1163V15.8435ZM18.8108 15.8435H18.9733V17.523H18.8068V15.8435H18.8108ZM18.5118 15.8435H18.6743V17.523H18.5167V15.8435H18.5118ZM13.2777 20.9558C13.3876 20.9558 13.4951 20.9884 13.5865 21.0494C13.6779 21.1105 13.7491 21.1973 13.7912 21.2988C13.8332 21.4004 13.8442 21.5121 13.8228 21.6199C13.8013 21.7277 13.7484 21.8268 13.6707 21.9045C13.593 21.9822 13.4939 22.0351 13.3861 22.0566C13.2783 22.078 13.1666 22.067 13.065 22.025C12.9635 21.9829 12.8767 21.9117 12.8156 21.8203C12.7546 21.7289 12.722 21.6214 12.722 21.5115C12.722 21.3641 12.7805 21.2228 12.8847 21.1185C12.989 21.0143 13.1303 20.9558 13.2777 20.9558ZM13.2777 21.1134C13.3269 21.1134 13.3757 21.1224 13.4215 21.1402C13.3997 21.1527 13.3811 21.17 13.3671 21.1909C13.3531 21.2118 13.3441 21.2357 13.3409 21.2606C13.3377 21.2856 13.3404 21.3109 13.3486 21.3346C13.3569 21.3584 13.3705 21.3799 13.3885 21.3975C13.4065 21.4151 13.4283 21.4282 13.4522 21.436C13.4761 21.4437 13.5015 21.4458 13.5264 21.442C13.5512 21.4382 13.5749 21.4288 13.5955 21.4143C13.616 21.3999 13.633 21.3809 13.645 21.3588C13.6781 21.4375 13.685 21.5249 13.6647 21.6079C13.6443 21.6909 13.5978 21.7652 13.532 21.8197C13.4662 21.8742 13.3846 21.9061 13.2993 21.9107C13.214 21.9153 13.1294 21.8923 13.0582 21.8451C12.9869 21.7979 12.9327 21.729 12.9036 21.6487C12.8746 21.5683 12.8721 21.4807 12.8966 21.3989C12.9211 21.317 12.9714 21.2452 13.0398 21.1941C13.1083 21.143 13.1914 21.1153 13.2769 21.115L13.2777 21.1134Z" fill="white"/>
</svg>
