<svg width="36" height="36" viewBox="0 0 36 36" fill="none" xmlns="http://www.w3.org/2000/svg">
<circle cx="18" cy="18" r="17.75" fill="white" stroke="black" stroke-width="0.5"/>
<g clip-path="url(#clip0_236_194)">
<path d="M30 24.588C29.6507 24.7201 29.2651 24.7198 28.916 24.5872C28.5669 24.4546 28.2785 24.1988 28.105 23.868L24.655 19.097L24.155 18.43L20.152 23.874C19.989 24.1909 19.7162 24.4375 19.3845 24.5678C19.0529 24.6981 18.6851 24.7032 18.35 24.582L23.508 17.662L18.71 11.411C19.055 11.2867 19.4323 11.285 19.7784 11.4064C20.1244 11.5277 20.4181 11.7645 20.61 12.077L24.186 16.907L27.782 12.097C27.9463 11.7858 28.2192 11.5458 28.5488 11.4227C28.8785 11.2995 29.2419 11.3018 29.57 11.429L27.708 13.9L25.186 17.183C25.116 17.2455 25.0599 17.3221 25.0216 17.4077C24.9832 17.4934 24.9633 17.5862 24.9633 17.68C24.9633 17.7739 24.9832 17.8667 25.0216 17.9523C25.0599 18.038 25.116 18.1145 25.186 18.177L29.99 24.589L30 24.588ZM6.00201 17.576L6.42201 15.501C7.57601 11.398 12.28 9.69102 15.516 12.231C17.411 13.72 17.884 15.828 17.791 18.204H7.11601C6.94301 22.447 10.005 25.009 13.92 23.7C14.5547 23.4716 15.1228 23.0893 15.5734 22.5873C16.024 22.0854 16.3431 21.4796 16.502 20.824C16.709 20.158 17.05 20.044 17.676 20.236C17.5717 21.0484 17.2845 21.8266 16.8361 22.5119C16.3876 23.1973 15.7896 23.7721 15.087 24.193C13.9264 24.8279 12.5948 25.0795 11.2826 24.9119C9.97043 24.7443 8.74481 24.1661 7.78101 23.26C6.82804 22.1874 6.25209 20.8325 6.14101 19.402C6.14101 19.167 6.06101 18.947 6.00701 18.736C6.00214 18.3497 5.99981 17.9634 6.00001 17.577L6.00201 17.576ZM7.12901 17.29H16.783C16.723 14.214 14.782 12.032 12.193 12.012C9.31101 11.972 7.24901 14.106 7.12201 17.276L7.12901 17.29Z" fill="black"/>
</g>
<defs>
<clipPath id="clip0_236_194">
<rect width="24" height="24" fill="white" transform="translate(6 6)"/>
</clipPath>
</defs>
</svg>
