<svg width="36" height="36" viewBox="0 0 36 36" fill="none" xmlns="http://www.w3.org/2000/svg">
<circle cx="18" cy="18" r="17.75" fill="white" stroke="#EEAB37" stroke-width="0.5"/>
<g clip-path="url(#clip0_240_28)">
<path d="M8.00391 25.3503L8.16971 25.1471L16.0112 12.1205L16.0278 11.9826L12.5712 6.29797C12.2814 5.8218 11.4661 5.94221 11.3711 6.47527L8.00391 25.3503Z" fill="#FFC24A"/>
<path d="M18.5468 16.2825L21.1206 13.9748L18.546 9.67192C18.3017 9.2646 17.6193 9.26337 17.3775 9.67192L16.002 11.9685V12.164L18.5467 16.2825H18.5468Z" fill="#F4BD62"/>
<path d="M8.00391 25.3502L8.07904 25.284L8.35207 25.1869L18.3861 16.4348L18.5132 16.1318L16.0101 11.9558L8.00391 25.3502Z" fill="#F6820C"/>
<path d="M18.8692 29.7642L27.9502 25.3302L25.357 11.3477C25.2758 10.9102 24.6628 10.7373 24.3051 11.0509L8.00391 25.3503L17.0328 29.7639C17.3135 29.901 17.6295 29.9731 17.951 29.9731C18.2724 29.9732 18.5885 29.9013 18.8692 29.7642Z" fill="#FDE068"/>
<path d="M27.8677 25.293L25.2941 11.4166C25.2137 10.9824 24.7039 10.8028 24.3489 11.1141L8.10352 25.3231L17.0333 29.6929C17.3118 29.829 17.6255 29.9005 17.9445 29.9006C18.2634 29.9007 18.5771 29.8293 18.8557 29.6933L27.8678 25.2929L27.8677 25.293Z" fill="#FCCA3F"/>
<path d="M18.869 29.6336C18.5883 29.7706 18.2722 29.8425 17.9508 29.8425C17.6294 29.8424 17.3134 29.7704 17.0327 29.6332L8.07654 25.2831L8.00391 25.3503L17.0327 29.7639C17.3134 29.9011 17.6295 29.9731 17.9509 29.9732C18.2723 29.9732 18.5884 29.9013 18.8691 29.7642L27.9501 25.3302L27.9279 25.2104L18.8691 29.6336L18.869 29.6336Z" fill="#EEAB37"/>
</g>
<defs>
<clipPath id="clip0_240_28">
<rect width="20" height="24" fill="white" transform="translate(8 6)"/>
</clipPath>
</defs>
</svg>
