<svg width="36" height="36" viewBox="0 0 36 36" fill="none" xmlns="http://www.w3.org/2000/svg">
<circle cx="18" cy="18" r="17.75" fill="white" stroke="#00ACD7" stroke-width="0.5"/>
<g clip-path="url(#clip0_236_181)">
<path d="M19.5698 8.52362L19.6181 8.60955C20.1858 9.60929 20.5928 10.9804 20.8606 12.6372C20.9249 12.8942 20.882 13.0371 20.7535 13.1226L20.5359 13.2711C20.0441 13.6091 19.6538 13.8932 19.1684 14.2311L18.8915 14.4234C18.7918 14.4892 18.7643 14.4616 18.6583 14.1396L18.6433 14.0939C18.4921 13.6369 18.3789 13.3316 18.1785 13.0592L18.1399 13.0084C17.4651 12.123 16.8117 12.38 16.2012 13.4369C15.4727 14.6937 15.0978 16.5504 15.1085 18.8641C15.1193 21.1491 15.7084 23.0343 16.5546 23.3485C17.283 23.6056 17.8935 22.9201 18.3755 21.4634C18.472 21.1491 18.5576 20.8064 18.6647 20.4065H16.5975C16.3726 20.4065 16.319 20.0352 16.394 19.5496L16.4311 19.3164C16.5688 18.4623 16.7823 17.2347 16.921 16.5328L16.9512 16.3816C16.9883 16.2104 17.0635 15.9791 17.208 15.9791H20.6552C20.81 14.6711 21.0612 13.4352 21.3962 12.2658C22.1782 9.5237 23.1208 8.09542 24.3954 7.49569C25.488 6.98144 26.5163 7.26709 27.4482 8.95239C28.2944 10.4948 28.8193 12.5801 28.9585 15.3221C29.1406 19.1783 28.7229 22.3203 27.7267 25.0053C27.0197 26.9191 26.1521 28.1187 25.1559 28.6614C24.8667 28.8043 24.5775 28.8328 24.299 28.9185C23.3243 28.8614 22.4352 28.1187 21.6854 26.4049C21.1581 25.1892 20.7948 23.6953 20.6143 21.9559C20.4876 22.6375 20.337 23.2855 20.1644 23.8912C19.3932 26.6049 18.3863 28.29 17.1117 28.7472C16.0619 29.1185 15.0872 28.5757 14.2303 26.8619C13.4376 25.2623 12.9877 23.1486 12.8699 20.5208C12.7307 17.4073 13.0734 14.608 13.7804 12.1516C14.5409 9.49505 15.5478 7.80988 16.7796 7.21003C17.7678 6.73337 18.7148 7.02727 19.5698 8.52362H19.5698ZM24.6653 12.6168L24.631 12.6372C23.6349 13.237 22.9922 14.9222 22.7566 17.6072C22.5637 19.8352 22.9708 22.0918 23.742 23.0058C24.3311 23.6914 24.9202 23.6056 25.4879 22.8344C26.3342 21.6633 26.7948 19.8352 26.8483 17.3787C26.8376 17.0075 26.8376 16.7217 26.8162 16.4361C26.6255 13.6401 25.6704 12.0448 24.6653 12.6168ZM12.0022 17.8357C12.0451 17.8357 12.0665 17.9214 12.0665 18.0356L12.0451 18.7212C12.0451 18.8354 12.0022 18.9211 11.9701 18.9211L9.63501 18.8926C9.59217 18.8926 9.58148 18.8069 9.60287 18.7212L9.75283 18.0071C9.77428 17.9214 9.81712 17.8357 9.85996 17.8357H12.0022ZM12.2379 15.2078C12.2807 15.2078 12.3022 15.2935 12.2915 15.3793L12.2057 16.0648C12.195 16.179 12.1522 16.2361 12.1094 16.2361L7.04284 16.2648C7 16.2648 6.9893 16.2076 7.0107 16.1219L7.23564 15.3507C7.25708 15.265 7.31062 15.2078 7.35346 15.2078H12.2379ZM12.7949 12.58C12.8377 12.58 12.8484 12.6657 12.827 12.7514L12.6449 13.494C12.6235 13.5797 12.57 13.6654 12.5378 13.6654L8.66031 13.6368C8.61743 13.6368 8.60673 13.5797 8.62813 13.494L8.85307 12.7229C8.87451 12.6372 8.92805 12.58 8.97089 12.58H12.7949Z" fill="#00ACD7"/>
</g>
<defs>
<clipPath id="clip0_236_181">
<rect width="22" height="22" fill="white" transform="translate(7 7)"/>
</clipPath>
</defs>
</svg>
