<svg width="36" height="36" viewBox="0 0 36 36" fill="none" xmlns="http://www.w3.org/2000/svg">
<circle cx="18" cy="18" r="17.75" fill="white" stroke="#E535AB" stroke-width="0.5"/>
<g clip-path="url(#clip0_236_179)">
<path fill-rule="evenodd" clip-rule="evenodd" d="M20.304 8.74692L25.849 11.5928C26.009 11.4422 26.1928 11.313 26.3944 11.2091C27.5443 10.6214 29.0111 10.9703 29.6791 11.9926C30.3402 13.0148 29.9477 14.3186 28.7977 14.9123C28.5975 15.0148 28.3819 15.0911 28.1573 15.139V20.8328C28.3794 20.8807 28.5927 20.9565 28.7908 21.0579C29.9477 21.6517 30.3402 22.9555 29.6723 23.9778C29.0111 24.9999 27.5375 25.3488 26.3875 24.7612C26.1647 24.6476 25.964 24.5028 25.7931 24.3323L20.2819 27.1607C20.3626 27.3779 20.4036 27.6052 20.4033 27.834C20.4033 29.0093 19.3291 29.9703 18 29.9703C16.6709 29.9703 15.5967 29.0153 15.5967 27.834C15.5967 27.624 15.6307 27.4212 15.694 27.2296L10.1505 24.3846C9.9922 24.5322 9.81107 24.659 9.61259 24.7612C8.45571 25.3488 6.9889 24.9999 6.32777 23.9778C5.66674 22.9555 6.05927 21.6517 7.20921 21.0579C7.40731 20.9565 7.62064 20.8807 7.84277 20.8327V15.139C7.61819 15.0911 7.40251 15.0148 7.20237 14.9123C6.05234 14.3247 5.65981 13.0148 6.32093 11.9926C6.98206 10.9703 8.45562 10.6214 9.60565 11.2091C9.80619 11.3124 9.98899 11.4408 10.1485 11.5903L15.695 8.74375C15.6296 8.54649 15.5965 8.34189 15.5967 8.13625C15.5967 6.955 16.6709 6 18 6C19.3291 6 20.4033 6.95492 20.4033 8.13625C20.4033 8.34858 20.3686 8.5535 20.304 8.74692ZM19.7263 9.62375L25.2845 12.4762C25.196 12.7513 25.1706 13.0393 25.2099 13.3232C25.2491 13.6071 25.3522 13.8811 25.513 14.1288C25.8513 14.652 26.4025 14.9988 27.0142 15.134V20.8348C26.983 20.8416 26.9519 20.849 26.9211 20.8568L19.6617 9.68083C19.6837 9.66217 19.7052 9.64317 19.7263 9.62383V9.62375ZM16.3398 9.68208L9.08056 20.8579C9.04917 20.8498 9.0176 20.8423 8.98587 20.8354V15.134C9.59759 14.9988 10.1487 14.652 10.4871 14.1288C10.6482 13.8806 10.7514 13.606 10.7905 13.3215C10.8295 13.0371 10.8038 12.7485 10.7146 12.4731L16.2712 9.62142C16.2936 9.642 16.3165 9.66225 16.3398 9.682V9.68208ZM18.6716 10.1883L25.9291 21.3617C25.7629 21.5027 25.6204 21.6643 25.506 21.8414C25.392 22.0175 25.3067 22.2071 25.2527 22.4046H10.7475C10.6935 22.2071 10.6081 22.0175 10.494 21.8414C10.3793 21.6655 10.237 21.5049 10.0716 21.3644L17.3306 10.1888C17.5482 10.2445 17.7736 10.2727 18 10.2725C18.2332 10.2725 18.4585 10.2432 18.6716 10.1883ZM19.7773 26.3948L25.2994 23.5608C25.2828 23.5146 25.2681 23.4678 25.2551 23.4207H10.7444C10.7367 23.4484 10.7284 23.4759 10.7195 23.5033L16.2686 26.3512C16.4926 26.1441 16.7616 25.9795 17.0591 25.8671C17.3567 25.7548 17.6767 25.6972 18 25.6978C18.3346 25.6972 18.6656 25.759 18.9717 25.879C19.2778 25.9991 19.5522 26.1748 19.7773 26.3948Z" fill="#E535AB"/>
</g>
<defs>
<clipPath id="clip0_236_179">
<rect width="24" height="24" fill="white" transform="translate(6 6)"/>
</clipPath>
</defs>
</svg>
