<svg width="36" height="36" viewBox="0 0 36 36" fill="none" xmlns="http://www.w3.org/2000/svg">
<circle cx="18" cy="18" r="17.75" fill="white" stroke="#F7DF1E" stroke-width="0.5"/>
<g clip-path="url(#clip0_236_131)">
<path d="M7 7H29V29H7V7Z" fill="#F7DF1E"/>
<path d="M12.7852 25.3848L14.4688 24.3659C14.7936 24.9418 15.0891 25.4291 15.7978 25.4291C16.4771 25.4291 16.9055 25.1634 16.9055 24.1297V17.1002H18.9729V24.1589C18.9729 26.3002 17.7177 27.2749 15.8864 27.2749C14.2325 27.2749 13.2725 26.4184 12.7852 25.3846M20.0959 25.1633L21.7792 24.1887C22.2224 24.9123 22.7983 25.4439 23.8172 25.4439C24.6739 25.4439 25.2201 25.0156 25.2201 24.4249C25.2201 23.7161 24.659 23.465 23.7138 23.0516L23.1971 22.8299C21.7055 22.1951 20.7161 21.3976 20.7161 19.7141C20.7161 18.1634 21.8975 16.9819 23.7435 16.9819C25.0578 16.9819 26.0029 17.4398 26.6822 18.636L25.0724 19.6698C24.7179 19.0348 24.3341 18.7838 23.7434 18.7838C23.1379 18.7838 22.7539 19.1678 22.7539 19.6698C22.7539 20.29 23.1379 20.5412 24.0239 20.9252L24.5407 21.1466C26.2981 21.8999 27.2875 22.6677 27.2875 24.3954C27.2875 26.2563 25.8256 27.2752 23.8615 27.2752C21.9417 27.2752 20.7012 26.3596 20.0958 25.1634" fill="black"/>
</g>
<defs>
<clipPath id="clip0_236_131">
<rect width="22" height="22" fill="white" transform="translate(7 7)"/>
</clipPath>
</defs>
</svg>
