<svg width="36" height="36" viewBox="0 0 36 36" fill="none" xmlns="http://www.w3.org/2000/svg">
<circle cx="18" cy="18" r="17.75" fill="white" stroke="#5382A1" stroke-width="0.5"/>
<path d="M13.9218 21.5611C13.9218 21.5611 12.8082 22.0692 14.7143 22.2411C17.0236 22.4477 18.2037 22.4181 20.7486 22.0402C20.7486 22.0402 21.4177 22.3693 22.3519 22.6544C16.6473 24.5725 9.44096 22.5433 13.9218 21.5611ZM13.2247 19.0581C13.2247 19.0581 11.9757 19.7834 13.8832 19.9382C16.35 20.1378 18.2981 20.1542 21.669 19.645C21.669 19.645 22.1353 20.0158 22.8684 20.2186C15.971 21.8009 8.28857 20.3434 13.2247 19.0581Z" fill="#5382A1"/>
<path d="M19.1018 14.8115C20.5075 16.0811 18.7325 17.2236 18.7325 17.2236C18.7325 17.2236 22.3016 15.7781 20.6625 13.968C19.1316 12.2801 17.9575 11.4413 24.3132 8.54956C24.3132 8.54956 14.3369 10.5042 19.1018 14.8114" fill="#E76F00"/>
<path d="M20.6621 3.88019C20.6621 3.88019 23.6901 6.25652 17.7902 9.91044C13.0592 12.8416 16.7114 14.5128 17.7883 16.4223C15.0267 14.4676 13 12.7469 14.3597 11.1454C16.3553 8.79443 21.8838 7.65465 20.6621 3.88013" fill="#E76F00"/>
<path d="M14.9949 26.6705C20.243 26.9341 28.3019 26.5243 28.4928 24.5762C28.4928 24.5762 28.1259 25.3148 24.1555 25.9012C19.6762 26.5625 14.1517 26.4853 10.875 26.0615C10.8751 26.0615 11.5458 26.497 14.995 26.6705" fill="#5382A1"/>
<path d="M26.6465 23.4123C26.6465 23.4123 27.4706 23.9449 25.7389 24.357C22.446 25.1396 12.0337 25.376 9.14112 24.3882C8.10136 24.0334 10.0513 23.541 10.6646 23.4376C11.3042 23.3287 11.6698 23.3491 11.6698 23.3491C10.5135 22.71 4.19565 24.6039 8.46072 25.1462C20.0921 26.626 29.6635 24.4799 26.6465 23.4123ZM14.4573 16.4645C14.4573 16.4645 9.16103 17.4515 12.5818 17.8098C14.0262 17.9615 16.9055 17.9272 19.5875 17.7508C21.7794 17.6059 23.9803 17.2974 23.9803 17.2974C23.9803 17.2974 23.2074 17.5571 22.6483 17.8566C17.2699 18.9664 6.87978 18.4501 9.87096 17.315C12.4006 16.3557 14.4573 16.4645 14.4573 16.4645ZM23.9585 20.6308C29.426 18.402 26.898 16.2601 25.1336 16.5487C24.701 16.6193 24.5083 16.6804 24.5083 16.6804C24.5083 16.6804 24.6688 16.4832 24.9754 16.3978C28.466 15.435 31.1506 19.2373 23.8486 20.7432C23.8486 20.7432 23.9332 20.6839 23.9585 20.6308Z" fill="#5382A1"/>
</svg>
