<svg width="36" height="36" viewBox="0 0 36 36" fill="none" xmlns="http://www.w3.org/2000/svg">
<circle cx="18" cy="18" r="17.75" fill="white" stroke="#00758F" stroke-width="0.5"/>
<path fill-rule="evenodd" clip-rule="evenodd" d="M12.1378 10.5779C11.9226 10.5772 11.7082 10.6045 11.5 10.6591V10.6876H11.5309C11.68 10.9127 11.8462 11.1259 12.0281 11.3254C12.1532 11.574 12.2621 11.8218 12.3864 12.0705L12.4173 12.0388C12.5327 11.9471 12.6231 11.8278 12.6799 11.6918C12.7367 11.5559 12.7582 11.4077 12.7423 11.2612C12.6743 11.1563 12.6119 11.0478 12.5554 10.9362C12.462 10.781 12.2597 10.703 12.1354 10.5787" fill="#5D87A1"/>
<path fill-rule="evenodd" clip-rule="evenodd" d="M27.5709 24.1369C26.546 24.0649 25.5176 24.2134 24.5549 24.5724C24.3217 24.6659 23.9496 24.6659 23.9171 24.9608C24.0422 25.0851 24.0568 25.2858 24.1665 25.4589C24.3793 25.8192 24.6528 26.14 24.975 26.4071C25.3 26.6557 25.625 26.9035 25.9703 27.1212C26.5756 27.4958 27.2605 27.7127 27.8504 28.0857C28.1933 28.3034 28.5345 28.5829 28.8774 28.8169C29.048 28.9412 29.1561 29.1419 29.3738 29.2232V29.1761C29.3099 29.0034 29.2307 28.8367 29.1374 28.678C28.9822 28.5236 28.8262 28.383 28.6702 28.2279C28.2145 27.6252 27.6692 27.0958 27.0533 26.6581C26.5553 26.3152 25.4665 25.8456 25.2658 25.2769L25.2342 25.2452C25.5986 25.1935 25.9578 25.1098 26.3075 24.9949C26.8356 24.8552 27.3174 24.8869 27.861 24.7512C28.1104 24.6886 28.5613 24.5334 28.5613 24.5334V24.2897C28.2835 24.0134 28.0844 23.6437 27.7919 23.3829C26.9961 22.6883 26.1481 22.0559 25.2553 21.4914C24.7783 21.1835 24.1633 20.9852 23.6555 20.7228C23.4718 20.6302 23.168 20.5847 23.0567 20.4303C22.8041 20.0598 22.5927 19.6628 22.4262 19.2465C21.9716 18.3713 21.5512 17.4788 21.166 16.5709C20.939 15.972 20.6772 15.3868 20.3819 14.8184C18.9571 12.3959 16.9004 10.4063 14.432 9.06261C13.8091 8.76114 13.1469 8.54889 12.4649 8.43211C12.0798 8.41586 11.6963 8.3858 11.312 8.37118C11.0639 8.20865 10.8279 8.02834 10.6059 7.83168C9.72678 7.27511 7.46803 6.07911 6.82128 7.66268C6.4069 8.66286 7.43715 9.64599 7.79059 10.1538C8.08861 10.5119 8.35119 10.898 8.57465 11.3067C8.68272 11.5684 8.71359 11.8454 8.8184 12.1192C9.04394 12.8221 9.31174 13.5108 9.62034 14.1814C9.78539 14.5128 9.97553 14.8311 10.1891 15.1336C10.3134 15.3034 10.5279 15.3774 10.5742 15.6577C10.4038 16.0239 10.2846 16.4119 10.22 16.8106C9.95139 17.6588 9.85255 18.5515 9.92908 19.4379C10.0056 20.3243 10.256 21.1869 10.666 21.9765C10.9098 22.3608 11.4964 23.2066 12.2805 22.8832C12.9719 22.607 12.8183 21.7303 13.0182 20.9625C13.0637 20.7764 13.0337 20.6545 13.1255 20.5319V20.6814C13.1255 20.6814 13.5179 21.5434 13.7129 21.9814C14.2432 22.7849 14.902 23.4959 15.6629 24.0857C15.9639 24.3485 16.2064 24.6715 16.3747 25.0339V25.3126H16.7216C16.7144 25.187 16.6795 25.0644 16.6196 24.9538C16.5596 24.8431 16.476 24.747 16.3747 24.6724C16.0902 24.3795 15.8296 24.0644 15.5955 23.7299C14.9595 22.8241 14.3986 21.8678 13.9185 20.8707C13.6747 20.3832 13.4692 19.8486 13.2742 19.3619C13.1848 19.1742 13.1848 18.8906 13.0345 18.7931C12.7569 19.1215 12.5161 19.4792 12.3162 19.8599C12.0736 20.6294 11.9324 21.4272 11.8962 22.2332C11.8368 22.2495 11.8661 22.2332 11.8368 22.2641C11.3583 22.1382 11.1933 21.6206 11.013 21.1819C10.547 19.8287 10.5 18.3664 10.8781 16.9861C10.9821 16.6571 11.433 15.6203 11.2527 15.3059C11.1625 15.0061 10.8627 14.8346 10.6985 14.5982C10.489 14.2801 10.3087 13.9437 10.1598 13.5931C9.80315 12.7189 9.62278 11.7439 9.2344 10.8631C9.01942 10.4395 8.76909 10.0348 8.48609 9.6533C8.17305 9.27219 7.89691 8.8622 7.6614 8.42886C7.58665 8.2558 7.48184 7.97305 7.60128 7.78455C7.60934 7.73219 7.63424 7.68388 7.67221 7.64694C7.71018 7.60999 7.75915 7.58642 7.81172 7.5798C8.00509 7.40755 8.56003 7.62693 8.75422 7.72118C9.27613 7.92664 9.77326 8.19019 10.2362 8.50686C10.4458 8.66449 10.9398 9.06343 10.9398 9.06343H11.0861C11.5833 9.17149 12.1423 9.09349 12.6103 9.23405C13.3983 9.49672 14.1503 9.85703 14.8488 10.3066C16.9074 11.6189 18.5809 13.4539 19.6986 15.6244C19.8855 15.9811 19.9643 16.3085 20.1349 16.6806C20.4599 17.4444 20.8662 18.2244 21.1912 18.967C21.4779 19.7017 21.8487 20.4008 22.2962 21.0502C22.5285 21.3752 23.4621 21.5475 23.8822 21.7181C24.2469 21.8443 24.6049 21.9894 24.9547 22.1528C25.4836 22.4778 26.0109 22.8524 26.509 23.209C26.7568 23.3959 27.5343 23.7843 27.5815 24.0955" fill="#00758F"/>
</svg>
