<svg width="36" height="36" viewBox="0 0 36 36" fill="none" xmlns="http://www.w3.org/2000/svg">
<circle cx="18" cy="18" r="17.75" fill="white" stroke="#FF3E00" stroke-width="0.5"/>
<path fill-rule="evenodd" clip-rule="evenodd" d="M20.1369 6C19.972 6.0023 19.8085 6.03125 19.6528 6.08571C21.039 6.996 19.4039 8.31429 20.1678 9.42857C20.1152 9.05378 20.1749 8.67181 20.3394 8.33086C20.5039 7.98992 20.7659 7.70528 21.0922 7.51286C21.3369 7.30971 21.4939 7.23686 21.4416 6.90086C21.3566 6.35057 20.6219 6 20.1369 6ZM22.1111 6.35486C21.9197 7.31743 21.6819 7.35257 20.9755 7.97229C20.7 8.1892 20.5055 8.49237 20.4235 8.83302C20.3414 9.17367 20.3765 9.53198 20.5231 9.85029C17.6048 8.71886 13.8641 8.03486 11.1217 9.99257C10.1355 10.6963 9.53379 11.7069 8.31752 12.1191C7.53127 12.3883 6.75877 12.3086 6.26608 13.0869C6.08589 13.3116 5.99176 13.5931 6.00057 13.8808C6.00938 14.1686 6.12055 14.4438 6.31414 14.6571C6.46092 14.8071 6.74332 14.9031 6.86005 15.0557C6.92786 15.1414 6.92614 15.2271 6.99052 15.3411C7.10429 15.6068 7.26871 15.8479 7.47462 16.0509C7.6008 16.1546 8.03426 16.2557 8.10808 16.3663C8.20078 16.5043 7.96045 17.052 8.16216 17.1377C8.29777 17.2003 8.69519 16.5 8.73381 16.4383C8.65485 16.9894 8.55099 17.9674 9.17157 17.1531C9.46598 16.7666 9.484 16.6389 9.97927 16.5531C10.2962 16.4982 10.6165 16.4649 10.938 16.4537C12.7746 16.3896 14.5659 17.0313 15.9428 18.2468C17.3196 19.4623 18.1772 21.1588 18.3387 22.9869C18.246 22.5583 17.6855 21.8726 17.1636 22.0354C16.9413 22.104 16.8589 22.4871 16.713 22.7091C16.5285 22.9906 16.3012 23.2416 16.0392 23.4531C16.0835 23.0376 16.0627 22.6177 15.9774 22.2086C15.8211 22.8497 15.5079 23.9134 14.719 23.7411C14.4563 23.7011 14.21 23.5881 14.0085 23.415C13.8069 23.2419 13.6582 23.0157 13.5792 22.7623C13.477 22.1109 14.1663 21.3471 13.0581 21.2931C10.835 21.1843 11.3492 24.4491 12.6616 25.3003C12.36 25.3336 12.0657 25.4155 11.7904 25.5429C12.624 26.0263 13.5634 26.2991 14.5267 26.3373C15.49 26.3755 16.4481 26.1781 17.3176 25.7623C18.187 25.3464 18.9416 24.7246 19.5155 23.9511C20.0895 23.1776 20.4654 22.2757 20.6107 21.324C20.8017 22.1956 20.7973 23.0986 20.5978 23.9683C20.4912 24.4305 20.3316 24.8788 20.1223 25.3046C19.8386 25.8796 19.4615 26.4038 19.0065 26.856C18.7369 27.1226 18.2425 27.3909 18.0726 27.6626C19.1129 27.5248 20.1294 27.2457 21.0939 26.8329C20.0955 28.1986 18.7658 29.2884 17.2297 30C18.8767 29.8837 20.4687 29.3597 21.8623 28.4755C23.2559 27.5913 24.4072 26.3746 25.2123 24.9351C24.9557 26.3748 24.3858 27.7406 23.5428 28.9363C24.6766 28.1783 25.6412 27.1944 26.3761 26.0464C27.111 24.8983 27.6002 23.611 27.8131 22.2651C28.0244 23.2503 28.0849 24.2618 27.9924 25.2651C28.9238 23.9728 29.553 22.4882 29.8336 20.9208C30.1142 19.3534 30.0391 17.7431 29.6139 16.2086C29.2886 15.0156 28.8008 13.873 28.1641 12.8126C27.9183 12.3994 27.6492 12.0005 27.3581 11.6177C27.244 11.4694 26.6337 10.9269 26.6337 10.7606C26.6285 10.7771 26.6243 10.7771 26.6208 10.7606C26.6208 13.5446 23.6166 15.3317 21.1008 14.586C22.0574 14.5119 22.9616 14.1198 23.6689 13.4724C24.3762 12.825 24.8459 11.9595 25.0028 11.0143C25.1418 10.0226 24.9287 9.01365 24.4005 8.16251C23.8723 7.31138 23.0623 6.67183 22.1111 6.35486Z" fill="#EA2845"/>
</svg>
