<svg width="36" height="36" viewBox="0 0 36 36" fill="none" xmlns="http://www.w3.org/2000/svg">
<circle cx="18" cy="18" r="17.75" fill="white" stroke="black" stroke-width="0.5"/>
<g clip-path="url(#clip0_236_118)">
<path fill-rule="evenodd" clip-rule="evenodd" d="M6 17.9998C6.00008 15.9291 6.53597 13.8937 7.55556 12.0915C8.57516 10.2892 10.0438 8.78147 11.8186 7.71482C13.5934 6.64818 15.614 6.05894 17.6839 6.00441C19.7539 5.94987 21.8027 6.43189 23.6313 7.4036C25.4598 8.3753 27.0057 9.80363 28.1188 11.5497C29.2319 13.2957 29.8742 15.3001 29.9833 17.3679C30.0924 19.4357 29.6646 21.4965 28.7415 23.3501C27.8183 25.2036 26.4313 26.7867 24.7152 27.9454L13.8512 12.7358C13.7528 12.5979 13.6131 12.4947 13.4522 12.4413C13.2914 12.3879 13.1178 12.3869 12.9564 12.4385C12.7949 12.4901 12.6541 12.5916 12.5541 12.7285C12.4541 12.8653 12.4001 13.0303 12.4 13.1998V25.1998H14V15.6958L23.328 28.755C21.4982 29.6617 19.4674 30.0864 17.4276 29.989C15.3879 29.8916 13.4067 29.2753 11.6717 28.1984C9.93666 27.1215 8.50515 25.6196 7.51265 23.835C6.52015 22.0503 5.99951 20.0419 6 17.9998ZM22 21.9998V12.3998H23.6V21.9998H22Z" fill="black"/>
</g>
<defs>
<clipPath id="clip0_236_118">
<rect width="24" height="24" fill="white" transform="translate(6 6)"/>
</clipPath>
</defs>
</svg>
