<svg width="36" height="36" viewBox="0 0 36 36" fill="none" xmlns="http://www.w3.org/2000/svg">
<circle cx="18" cy="18" r="17.75" fill="white" stroke="#539E43" stroke-width="0.5"/>
<g clip-path="url(#clip0_236_59)">
<path d="M17.8752 28.9366C17.8007 28.9366 17.7312 28.9042 17.6666 28.8475L17.0061 28.2078C16.9068 28.1187 16.9564 28.0863 16.9863 28.0702C17.1203 27.9973 17.1452 27.981 17.2842 27.8516C17.2991 27.8353 17.319 27.8434 17.3339 27.8596L17.8404 28.3536C17.8603 28.3698 17.8851 28.3698 17.9 28.3536L19.8815 26.483C19.9014 26.4668 19.9113 26.4344 19.9113 26.394V22.661C19.9113 22.6204 19.9014 22.5881 19.8815 22.5718L17.9 20.7094C17.8801 20.6932 17.8553 20.6932 17.8404 20.7094L15.8589 22.5718C15.8391 22.588 15.8291 22.6285 15.8291 22.6609V26.3939C15.8291 26.4263 15.8391 26.4668 15.8589 26.483L16.4003 26.9931C16.6933 27.2361 16.877 26.9526 16.877 26.6692V22.9848C16.877 22.9362 16.9018 22.8876 16.9366 22.8876H17.1899C17.2197 22.8876 17.2495 22.9281 17.2495 22.9848V26.6692C17.2495 27.3089 17.0359 27.6815 16.6634 27.6815C16.5492 27.6815 16.4599 27.6815 16.2066 27.479L15.6851 26.9931C15.556 26.8717 15.4766 26.6449 15.4766 26.402V22.669C15.4766 22.4261 15.556 22.1993 15.6851 22.0779L17.6666 20.2073C17.7908 20.094 17.9596 20.094 18.0838 20.2073L20.0652 22.0779C20.1944 22.1993 20.2739 22.4261 20.2739 22.669V26.402C20.2739 26.6449 20.1944 26.8717 20.0652 26.9931L18.0838 28.8637C18.0192 28.9123 17.9447 28.9366 17.8752 28.9366H17.8752ZM18.486 26.3696C17.617 26.3696 17.4382 25.7218 17.4382 25.1712C17.4382 25.1226 17.463 25.074 17.4978 25.074H17.756C17.7858 25.074 17.8106 25.1064 17.8106 25.155C17.8504 25.5842 17.9646 25.7947 18.491 25.7947C18.9081 25.7947 19.087 25.6408 19.087 25.2764C19.087 25.0659 19.0373 24.9121 18.3867 24.8068C17.8454 24.7177 17.5077 24.5234 17.5077 23.8189C17.5077 23.163 17.8454 22.7743 18.4115 22.7743C19.0472 22.7743 19.3601 23.1306 19.3998 23.9079C19.3998 23.9323 19.3948 23.9565 19.3849 23.9808C19.3749 23.997 19.3601 24.0132 19.3452 24.0132H19.0869C19.0621 24.0132 19.0373 23.9808 19.0323 23.9403C18.9727 23.495 18.8188 23.3492 18.4115 23.3492C17.9547 23.3492 17.9 23.6084 17.9 23.8027C17.9 24.0375 17.9646 24.1104 18.5804 24.2399C19.1912 24.3695 19.4793 24.5558 19.4793 25.2521C19.4743 25.9648 19.1167 26.3696 18.486 26.3696Z" fill="#539E43"/>
<path d="M11.7276 14.3363C11.7276 14.1906 11.6779 14.0528 11.5985 13.9799L9.49284 12.0041C9.45804 11.9717 9.41834 11.9555 9.37863 11.9474H9.35874C9.31904 11.9474 9.27929 11.9717 9.24453 12.0041L7.13889 13.9799C7.05939 14.0528 7.00977 14.1905 7.00977 14.3363L7.01475 19.6483C7.01475 19.7212 7.03959 19.794 7.07929 19.8265C7.11904 19.867 7.16866 19.867 7.20347 19.8265L8.45493 18.6604C8.53438 18.5875 8.58405 18.4499 8.58405 18.3041V15.8181C8.58405 15.6724 8.63368 15.5347 8.71318 15.4619L9.24453 14.9598C9.28427 14.9193 9.32896 14.903 9.37365 14.903C9.41834 14.903 9.46302 14.9193 9.49783 14.9598L10.0292 15.4619C10.1087 15.5347 10.1583 15.6723 10.1583 15.8181V18.3041C10.1583 18.4499 10.208 18.5875 10.2874 18.6604L11.5389 19.8265C11.5582 19.8463 11.5806 19.8569 11.6034 19.8569C11.6263 19.8569 11.6487 19.8463 11.668 19.8265C11.7078 19.794 11.7326 19.7212 11.7326 19.6483L11.7276 14.3363ZM21.8486 7.02409C21.8089 6.99165 21.7592 6.99165 21.7244 7.02409C21.6847 7.06458 21.6599 7.12932 21.6599 7.20219V12.4657C21.6599 12.5143 21.645 12.5628 21.6152 12.5953C21.5854 12.6195 21.5556 12.6195 21.5258 12.5953L20.9994 12.1013C20.9608 12.0655 20.9172 12.0466 20.8728 12.0466C20.8283 12.0466 20.7847 12.0655 20.7461 12.1013L18.6405 14.0852C18.561 14.1581 18.5113 14.2958 18.5113 14.4415V18.4012C18.5113 18.547 18.561 18.6847 18.6405 18.7576L20.7461 20.7415C20.7847 20.7773 20.8283 20.7962 20.8728 20.7962C20.9172 20.7962 20.9608 20.7773 20.9994 20.7415L23.105 18.7576C23.1845 18.6847 23.2342 18.547 23.2342 18.4012V8.53024C23.2342 8.37638 23.1845 8.23878 23.105 8.16584L21.8486 7.02409H21.8486ZM21.6549 17.0976C21.6549 17.1381 21.645 17.1704 21.6251 17.1866L20.905 17.8668C20.895 17.8748 20.8839 17.879 20.8728 17.879C20.8616 17.879 20.8505 17.8748 20.8405 17.8668L20.1204 17.1866C20.1005 17.1704 20.0906 17.1299 20.0906 17.0976V15.7371C20.0906 15.6966 20.1005 15.6643 20.1204 15.6481L20.8405 14.9678C20.8505 14.9598 20.8616 14.9557 20.8728 14.9557C20.8839 14.9557 20.895 14.9598 20.905 14.9678L21.6251 15.6481C21.645 15.6642 21.6549 15.7048 21.6549 15.7371V17.0976ZM28.8558 15.7048C28.9353 15.6319 28.98 15.4942 28.98 15.3484V14.3848C28.98 14.2391 28.9303 14.1014 28.8558 14.0286L26.7651 12.0528C26.7265 12.0169 26.6828 11.9981 26.6384 11.9981C26.594 11.9981 26.5504 12.0169 26.5118 12.0528L24.4061 14.0366C24.3266 14.1095 24.277 14.2472 24.277 14.3929V18.3527C24.277 18.4984 24.3267 18.6361 24.4061 18.709L26.4969 20.6524C26.5764 20.7253 26.6707 20.7253 26.7452 20.6524L28.0116 19.5026C28.0513 19.4702 28.0761 19.3973 28.0761 19.3245C28.0761 19.2516 28.0513 19.1787 28.0116 19.1463L25.896 17.1624C25.8562 17.1219 25.8314 17.0571 25.8314 16.9843V15.7453C25.8314 15.6725 25.8562 15.5996 25.896 15.5672L26.5565 14.9517C26.5758 14.9319 26.5982 14.9214 26.621 14.9214C26.6439 14.9214 26.6663 14.9319 26.6856 14.9517L27.3461 15.5672C27.3858 15.6077 27.4106 15.6724 27.4106 15.7453V16.717C27.4106 16.7899 27.4355 16.8628 27.4752 16.8951C27.4946 16.915 27.5169 16.9255 27.5398 16.9255C27.5626 16.9255 27.585 16.915 27.6043 16.8951L28.8558 15.7048Z" fill="#333333"/>
<path d="M26.6068 15.5187C26.6141 15.5108 26.6228 15.5066 26.6316 15.5066C26.6404 15.5066 26.6491 15.5108 26.6564 15.5187L27.0587 15.8993C27.0736 15.9156 27.0835 15.9398 27.0835 15.9722V16.7334C27.0835 16.7658 27.0736 16.7901 27.0587 16.8063L26.6564 17.1869C26.6491 17.1948 26.6404 17.199 26.6316 17.199C26.6228 17.199 26.6141 17.1948 26.6068 17.1869L26.2045 16.8063C26.1896 16.7901 26.1797 16.7658 26.1797 16.7334V15.9723C26.1797 15.9398 26.1896 15.9155 26.2045 15.8994L26.6068 15.5187Z" fill="#539E43"/>
<path d="M17.3434 14.0367L15.2428 12.0691C15.2221 12.0521 15.2005 12.0385 15.1782 12.0286L12.8242 18.6039C12.8437 18.6427 12.8673 18.6756 12.8938 18.7011L14.9944 20.6688C15.054 20.7255 15.1236 20.7417 15.1881 20.7092L17.3981 14.1178C17.3832 14.0854 17.3633 14.061 17.3434 14.0368V14.0367Z" fill="url(#paint0_linear_236_59)"/>
<path fill-rule="evenodd" clip-rule="evenodd" d="M14.9243 11.3484L14.8945 11.3727H14.9342L14.9243 11.3484Z" fill="url(#paint1_linear_236_59)"/>
<path fill-rule="evenodd" clip-rule="evenodd" d="M17.349 18.693C17.4086 18.6363 17.4533 18.5391 17.4732 18.4339L15.1688 12.0206C15.1092 12.0044 15.0447 12.0124 14.9901 12.0691L12.9043 14.0288L15.1539 20.7174C15.1866 20.7087 15.2184 20.6923 15.2483 20.6689L17.349 18.6931L17.349 18.693Z" fill="url(#paint2_linear_236_59)"/>
<path fill-rule="evenodd" clip-rule="evenodd" d="M17.5423 18.6281L17.5273 18.5876V18.6443L17.5422 18.6281H17.5423Z" fill="url(#paint3_linear_236_59)"/>
<path fill-rule="evenodd" clip-rule="evenodd" d="M17.3483 18.693L15.2526 20.6607C15.223 20.6853 15.1911 20.7018 15.1582 20.7093L15.1979 20.8308L17.5221 18.6364V18.5878L17.4625 18.4258C17.4526 18.5391 17.4079 18.6363 17.3483 18.693Z" fill="url(#paint4_linear_236_59)"/>
<path fill-rule="evenodd" clip-rule="evenodd" d="M17.3483 18.693L15.2526 20.6607C15.223 20.6853 15.1911 20.7018 15.1582 20.7093L15.1979 20.8308L17.5221 18.6364V18.5878L17.4625 18.4258C17.4526 18.5391 17.4079 18.6363 17.3483 18.693Z" fill="url(#paint5_linear_236_59)"/>
</g>
<defs>
<linearGradient id="paint0_linear_236_59" x1="14.8036" y1="16.8267" x2="21.4943" y2="14.5974" gradientUnits="userSpaceOnUse">
<stop offset="0.1376" stop-color="#41873F"/>
<stop offset="0.4032" stop-color="#54A044"/>
<stop offset="0.7136" stop-color="#66B848"/>
<stop offset="0.9081" stop-color="#6CC04A"/>
</linearGradient>
<linearGradient id="paint1_linear_236_59" x1="13.1421" y1="11.3517" x2="17.0099" y2="11.3517" gradientUnits="userSpaceOnUse">
<stop offset="0.09192" stop-color="#6CC04A"/>
<stop offset="0.2864" stop-color="#66B848"/>
<stop offset="0.5968" stop-color="#54A044"/>
<stop offset="0.8624" stop-color="#41873F"/>
</linearGradient>
<linearGradient id="paint2_linear_236_59" x1="12.7038" y1="16.365" x2="17.5417" y2="16.365" gradientUnits="userSpaceOnUse">
<stop offset="0.09192" stop-color="#6CC04A"/>
<stop offset="0.2864" stop-color="#66B848"/>
<stop offset="0.5968" stop-color="#54A044"/>
<stop offset="0.8624" stop-color="#41873F"/>
</linearGradient>
<linearGradient id="paint3_linear_236_59" x1="16.079" y1="18.6082" x2="17.5315" y2="18.6082" gradientUnits="userSpaceOnUse">
<stop offset="0.09192" stop-color="#6CC04A"/>
<stop offset="0.2864" stop-color="#66B848"/>
<stop offset="0.5968" stop-color="#54A044"/>
<stop offset="0.8624" stop-color="#41873F"/>
</linearGradient>
<linearGradient id="paint4_linear_236_59" x1="12.7031" y1="19.6349" x2="17.5409" y2="19.6349" gradientUnits="userSpaceOnUse">
<stop offset="0.09192" stop-color="#6CC04A"/>
<stop offset="0.2864" stop-color="#66B848"/>
<stop offset="0.5968" stop-color="#54A044"/>
<stop offset="0.8624" stop-color="#41873F"/>
</linearGradient>
<linearGradient id="paint5_linear_236_59" x1="18.2457" y1="13.3496" x2="15.1666" y2="23.2447" gradientUnits="userSpaceOnUse">
<stop stop-color="#41873F"/>
<stop offset="0.3288" stop-color="#418B3D"/>
<stop offset="0.6352" stop-color="#419637"/>
<stop offset="0.9319" stop-color="#3FA92D"/>
<stop offset="1" stop-color="#3FAE2A"/>
</linearGradient>
<clipPath id="clip0_236_59">
<rect width="22" height="22" fill="white" transform="translate(7 7)"/>
</clipPath>
</defs>
</svg>
