<svg width="36" height="36" viewBox="0 0 36 36" fill="none" xmlns="http://www.w3.org/2000/svg">
<circle cx="18" cy="18" r="17.75" fill="white" stroke="#6181B6" stroke-width="0.5"/>
<path d="M12.1783 15.9082H11.077L10.4762 18.9975H11.4538C12.1025 18.9975 12.5855 18.875 12.9028 18.6312C13.2202 18.3862 13.4337 17.979 13.5445 17.4073C13.6518 16.859 13.6028 16.4717 13.3998 16.2465C13.1957 16.0213 12.7897 15.9082 12.1783 15.9082ZM18 10.636C10.2685 10.636 4 13.933 4 18C4 22.067 10.2685 25.3652 18 25.3652C25.7315 25.3652 32 22.067 32 18C32 13.933 25.7315 10.636 18 10.636ZM14.1967 19.3288C13.8922 19.6205 13.5258 19.8398 13.1268 19.9717C12.7348 20.0977 12.2343 20.163 11.6277 20.163H10.2498L9.86833 22.1242H8.26067L9.69567 14.7438H12.7873C13.7172 14.7438 14.395 14.9877 14.822 15.4765C15.249 15.9642 15.3773 16.6455 15.207 17.5205C15.1418 17.8667 15.0216 18.2003 14.8512 18.5087C14.6843 18.8062 14.4662 19.0803 14.1967 19.3288ZM18.8913 20.163L19.5248 16.8975C19.5983 16.5265 19.5703 16.2722 19.4455 16.138C19.3207 16.0027 19.0535 15.935 18.644 15.935H17.37L16.5487 20.1642H14.9527L16.3877 12.7827H17.9825L17.601 14.745H19.022C19.9168 14.745 20.5328 14.9013 20.8723 15.2128C21.2118 15.5243 21.3133 16.0295 21.1792 16.7283L20.5118 20.163H18.8913ZM27.7545 17.5205C27.6903 17.867 27.5701 18.2008 27.3987 18.5087C27.2318 18.8062 27.0137 19.0803 26.7442 19.3288C26.4395 19.6196 26.0741 19.8392 25.6743 19.9717C25.2823 20.0977 24.7818 20.163 24.174 20.163H22.7973L22.4158 22.1253H20.8082L22.2432 14.745H25.3337C26.2635 14.745 26.9413 14.9888 27.3683 15.4777C27.7953 15.9642 27.9248 16.6455 27.7545 17.5205ZM24.727 15.9082H23.6268L23.0248 18.9975H24.0025C24.6523 18.9975 25.1353 18.875 25.4515 18.6312C25.7688 18.3862 25.9823 17.979 26.0943 17.4073C26.2017 16.859 26.1515 16.4717 25.9485 16.2465C25.7455 16.0213 25.3372 15.9082 24.727 15.9082Z" fill="#6181B6"/>
</svg>
