<svg width="36" height="36" viewBox="0 0 36 36" fill="none" xmlns="http://www.w3.org/2000/svg">
<circle cx="18" cy="18" r="17.75" fill="white" stroke="#387EB8" stroke-width="0.5"/>
<g clip-path="url(#clip0_236_104)">
<path d="M17.8985 6.00684C11.8205 6.00684 12.2 8.65295 12.2 8.65295L12.2067 11.3944H18.0068V12.2175H9.90298C9.90298 12.2175 6.01367 11.7746 6.01367 17.9314C6.01367 24.0882 9.40836 23.8699 9.40836 23.8699H11.4343V21.0129C11.4343 21.0129 11.3251 17.6049 14.7748 17.6049H20.5275C20.5275 17.6049 23.7595 17.6573 23.7595 14.469V9.19724C23.7595 9.19724 24.2504 6.00684 17.8985 6.00684ZM14.7003 7.85041C14.8373 7.85029 14.9731 7.8773 15.0997 7.9299C15.2264 7.9825 15.3414 8.05965 15.4384 8.15695C15.5353 8.25425 15.6121 8.36978 15.6645 8.49692C15.7169 8.62407 15.7438 8.76034 15.7437 8.89794C15.7438 9.03554 15.7169 9.17181 15.6645 9.29896C15.6121 9.42611 15.5353 9.54164 15.4384 9.63893C15.3414 9.73623 15.2264 9.81339 15.0997 9.86599C14.9731 9.91858 14.8373 9.9456 14.7003 9.94547C14.5632 9.9456 14.4275 9.91858 14.3008 9.86599C14.1742 9.81339 14.0591 9.73623 13.9622 9.63893C13.8653 9.54164 13.7884 9.42611 13.736 9.29896C13.6836 9.17181 13.6567 9.03554 13.6568 8.89794C13.6567 8.76034 13.6836 8.62407 13.736 8.49692C13.7884 8.36978 13.8653 8.25425 13.9622 8.15695C14.0591 8.05965 14.1742 7.9825 14.3008 7.9299C14.4275 7.8773 14.5632 7.85029 14.7003 7.85041Z" fill="url(#paint0_linear_236_104)"/>
<path d="M18.0711 29.9177C24.1491 29.9177 23.7696 27.2716 23.7696 27.2716L23.7629 24.5302H17.9627V23.7072H26.0665C26.0665 23.7072 29.9558 24.15 29.9558 17.9931C29.9558 11.8363 26.5611 12.0547 26.5611 12.0547H24.5352V14.9116C24.5352 14.9116 24.6444 18.3196 21.1947 18.3196H15.442C15.442 18.3196 12.21 18.2672 12.21 21.4556V26.7274C12.21 26.7274 11.7192 29.9177 18.071 29.9177H18.0711ZM21.2693 28.0743C21.1322 28.0745 20.9965 28.0475 20.8699 27.9949C20.7432 27.9423 20.6281 27.8651 20.5312 27.7678C20.4343 27.6705 20.3574 27.555 20.305 27.4278C20.2527 27.3007 20.2257 27.1644 20.2259 27.0268C20.2257 26.8892 20.2526 26.7529 20.305 26.6258C20.3574 26.4986 20.4343 26.3831 20.5312 26.2858C20.6281 26.1884 20.7432 26.1113 20.8698 26.0587C20.9965 26.0061 21.1322 25.9791 21.2693 25.9792C21.4064 25.9791 21.5421 26.0061 21.6688 26.0587C21.7954 26.1113 21.9105 26.1884 22.0074 26.2857C22.1043 26.383 22.1812 26.4985 22.2336 26.6257C22.286 26.7528 22.3129 26.8891 22.3127 27.0267C22.3129 27.1643 22.286 27.3006 22.2336 27.4277C22.1812 27.5549 22.1043 27.6704 22.0074 27.7677C21.9105 27.865 21.7954 27.9422 21.6688 27.9948C21.5421 28.0474 21.4064 28.0744 21.2693 28.0742V28.0743Z" fill="url(#paint1_linear_236_104)"/>
</g>
<defs>
<linearGradient id="paint0_linear_236_104" x1="8.3145" y1="8.15748" x2="20.2254" y2="19.9035" gradientUnits="userSpaceOnUse">
<stop stop-color="#387EB8"/>
<stop offset="1" stop-color="#366994"/>
</linearGradient>
<linearGradient id="paint1_linear_236_104" x1="15.5973" y1="15.7299" x2="28.3859" y2="27.7723" gradientUnits="userSpaceOnUse">
<stop stop-color="#FFE052"/>
<stop offset="1" stop-color="#FFC331"/>
</linearGradient>
<clipPath id="clip0_236_104">
<rect width="24" height="24" fill="white" transform="translate(6 6)"/>
</clipPath>
</defs>
</svg>
