<svg width="36" height="36" viewBox="0 0 36 36" fill="none" xmlns="http://www.w3.org/2000/svg">
<g clip-path="url(#clip0_236_120)">
<path d="M25.7328 13.7709C25.4774 13.6725 25.2198 13.5814 24.9603 13.4976C25.0039 13.2976 25.044 13.1 25.0796 12.9059C25.6644 9.7184 25.2821 7.15051 23.9763 6.30503C22.7242 5.49451 20.6767 6.33967 18.6087 8.3604C18.4049 8.55991 18.2056 8.76517 18.0111 8.97598C17.8808 8.8358 17.7483 8.69834 17.6135 8.56367C15.4462 6.40303 13.2738 5.4924 11.9693 6.3403C10.7184 7.15335 10.348 9.56735 10.8745 12.5882C10.9269 12.8874 10.9861 13.185 11.0519 13.4808C10.7444 13.5789 10.4477 13.6833 10.1637 13.7945C7.62272 14.7892 6 16.3481 6 17.965C6 19.635 7.74206 21.3101 10.3886 22.3258C10.6032 22.4078 10.8195 22.4838 11.0375 22.5537C10.9667 22.8723 10.9039 23.193 10.849 23.5156C10.3471 26.484 10.7391 28.8409 11.9866 29.6488C13.2751 30.4831 15.4377 29.6257 17.5434 27.5588C17.7142 27.3908 17.8812 27.218 18.0443 27.0406C18.255 27.2689 18.4713 27.4905 18.693 27.7052C20.7328 29.676 22.7473 30.4718 23.9936 29.6617C25.2809 28.8249 25.6993 26.2929 25.1561 23.2124C25.1133 22.9711 25.0653 22.7309 25.0122 22.4922C25.1641 22.4417 25.3132 22.3897 25.4585 22.3356C28.2098 21.3121 30 19.6573 30 17.965C30 16.3422 28.3249 14.7728 25.7328 13.7709ZM25.1361 21.2429C25.0048 21.2917 24.8702 21.3387 24.7329 21.3845C24.4292 20.3048 24.0193 19.1568 23.5177 17.9706C23.9963 16.8127 24.3905 15.6793 24.6857 14.6067C24.9312 14.6865 25.1694 14.7706 25.3991 14.8593C27.6201 15.7179 28.9748 16.987 28.9748 17.965C28.9748 19.0067 27.5117 20.359 25.1361 21.2429ZM24.1504 23.436C24.3906 24.7981 24.4248 26.0297 24.2657 26.9925C24.1228 27.8577 23.8354 28.4344 23.4799 28.6655C22.7236 29.157 21.1061 28.5181 19.3617 26.8326C19.1555 26.633 18.9543 26.4269 18.7582 26.2147C19.4346 25.3843 20.1104 24.4189 20.77 23.3467C21.9303 23.2311 23.0264 23.0421 24.0204 22.7841C24.0683 23.0002 24.1116 23.2176 24.1504 23.436ZM14.1821 28.5805C13.4432 28.8735 12.8546 28.8819 12.4988 28.6516C11.7418 28.1614 11.4271 26.2688 11.8564 23.7303C11.9074 23.4303 11.9658 23.132 12.0316 22.8357C13.0147 23.0799 14.1028 23.2555 15.2658 23.3613C15.9299 24.4105 16.6252 25.3748 17.326 26.2192C17.1771 26.381 17.0247 26.5387 16.8688 26.6921C15.9376 27.606 15.0045 28.2544 14.1821 28.5805ZM10.7203 21.2365C9.55003 20.7873 8.58356 20.2037 7.92113 19.5667C7.32581 18.9944 7.02534 18.4261 7.02534 17.965C7.02534 16.9838 8.32819 15.7322 10.5012 14.8816C10.7649 14.7784 11.0409 14.681 11.3273 14.5897C11.6277 15.6865 12.0217 16.8333 12.4971 17.993C12.0155 19.1699 11.6159 20.335 11.3126 21.4448C11.1137 21.3808 10.9162 21.3114 10.7203 21.2365ZM11.8808 12.367C11.4297 9.77893 11.7292 7.82661 12.4831 7.33661C13.286 6.81472 15.0614 7.55882 16.9327 9.42451C17.0548 9.54644 17.1748 9.67085 17.2928 9.79767C16.5955 10.6384 15.9066 11.5956 15.2483 12.6385C14.1196 12.756 13.0391 12.9446 12.0457 13.1973C11.9845 12.9222 11.9295 12.6454 11.8808 12.3671V12.367ZM22.2333 15.2373C21.9986 14.7823 21.7553 14.333 21.5034 13.8897C22.2692 13.9984 23.0029 14.1427 23.6918 14.3191C23.485 15.0636 23.2272 15.8418 22.9237 16.6397C22.7019 16.1671 22.4717 15.6996 22.2333 15.2373ZM18.0115 10.6204C18.4844 11.1957 18.958 11.8379 19.4239 12.5347C18.4789 12.4846 17.5323 12.4844 16.5873 12.5341C17.0536 11.8437 17.5312 11.2023 18.0115 10.6204ZM13.7627 15.2452C13.5272 15.7038 13.3013 16.1684 13.0852 16.6387C12.7867 15.8437 12.5312 15.0619 12.3226 14.3069C13.0073 14.1349 13.7376 13.9943 14.4984 13.8876C14.2438 14.3336 13.9984 14.7862 13.7627 15.2451V15.2452ZM14.5203 22.1244C13.7342 22.0259 12.993 21.8925 12.3084 21.7251C12.5203 20.9567 12.7814 20.1583 13.0864 19.3462C13.3034 19.8169 13.5302 20.2818 13.7667 20.7405C14.0099 21.2121 14.2617 21.674 14.5203 22.1244ZM18.0398 25.3907C17.5538 24.8021 17.0692 24.1508 16.5958 23.4504C17.0554 23.4706 17.5238 23.4809 18 23.4809C18.4892 23.4809 18.9728 23.4686 19.4487 23.4448C18.9814 24.1579 18.5095 24.8101 18.0398 25.3907ZM22.9334 19.3047C23.2542 20.1258 23.5246 20.92 23.7393 21.6752C23.0435 21.8536 22.2922 21.9971 21.5005 22.1038C21.7542 21.6522 21.9998 21.1951 22.2373 20.7326C22.4788 20.2625 22.7108 19.7864 22.9334 19.3047ZM21.3492 20.1575C20.9857 20.8665 20.6017 21.5622 20.1979 22.2432C19.4664 22.3014 18.7333 22.3303 18 22.3299C17.2531 22.3299 16.5266 22.3038 15.8271 22.2528C15.4127 21.5733 15.0214 20.8765 14.654 20.1638H14.6541C14.2884 19.4548 13.9468 18.7306 13.63 17.9925C13.946 17.2543 14.2865 16.5297 14.651 15.8202L14.6509 15.8203C15.0152 15.1106 15.4034 14.4168 15.8146 13.7402C16.5283 13.6796 17.2602 13.648 17.9999 13.648H18C18.7431 13.648 19.4759 13.6799 20.1894 13.7409C20.5965 14.4165 20.9822 15.108 21.3458 15.8141C21.7115 16.522 22.0566 17.2431 22.3805 17.9762C22.0599 18.7168 21.7159 19.4443 21.3492 20.1575ZM23.4642 7.3023C24.2678 7.82272 24.5804 9.92135 24.0755 12.6735C24.0432 12.849 24.007 13.0279 23.9677 13.2092C22.9718 12.9511 21.8906 12.7592 20.7586 12.64C20.0992 11.5856 19.4158 10.6269 18.7298 9.79703C18.9096 9.60246 19.0937 9.41292 19.2818 9.22861C21.0537 7.49735 22.7097 6.81377 23.4642 7.3023ZM18 15.5587C19.1836 15.5587 20.1431 16.6361 20.1431 17.965C20.1431 19.294 19.1836 20.3714 18 20.3714C16.8164 20.3714 15.8569 19.294 15.8569 17.965C15.8569 16.6361 16.8164 15.5587 18 15.5587Z" fill="#00D8FF"/>
</g>
<path d="M35.75 18C35.75 27.8031 27.8031 35.75 18 35.75C8.19695 35.75 0.25 27.8031 0.25 18C0.25 8.19695 8.19695 0.25 18 0.25C27.8031 0.25 35.75 8.19695 35.75 18Z" fill="white" fill-opacity="0.1" stroke="#00D8FF" stroke-width="0.5"/>
<defs>
<clipPath id="clip0_236_120">
<rect width="24" height="24" fill="white" transform="translate(6 6)"/>
</clipPath>
</defs>
</svg>
