<svg width="36" height="36" viewBox="0 0 36 36" fill="none" xmlns="http://www.w3.org/2000/svg">
<circle cx="18" cy="18" r="17.75" fill="white" stroke="#6DB33F" stroke-width="0.5"/>
<circle cx="18" cy="18" r="17.75" fill="white" stroke="#6DB33F" stroke-width="0.5"/>
<g clip-path="url(#clip0_236_136)">
<path d="M9.65103 9.36366C14.3929 4.77001 21.9748 4.89348 26.5685 9.66001C27.0871 8.96851 27.5317 8.20294 27.8528 7.41263C29.3593 12.0063 30.2731 15.859 29.9273 18.8473C29.7544 21.3664 28.7666 23.7867 27.1365 25.7131C22.8887 30.7513 15.3313 31.3934 10.2931 27.1456L10.1967 27.0598L10.1916 27.0564C10.1757 27.0454 10.1602 27.0339 10.1449 27.022C10.099 26.9863 10.0572 26.9474 10.0197 26.9058L10.0062 26.8904L9.84865 26.7504C9.6949 26.6187 9.54125 26.487 9.40493 26.3379L9.35468 26.2811C4.76093 21.5393 4.90915 13.9573 9.65093 9.36366H9.65103ZM11.4291 25.4415C10.9845 25.0958 10.3424 25.1451 9.99659 25.5896C9.69265 25.9806 9.69415 26.5242 10.0012 26.8848L10.0061 26.8904L10.1967 27.0598L10.2154 27.0726C10.647 27.3564 11.2279 27.2978 11.5591 26.8965L11.5773 26.8739C11.9231 26.4293 11.849 25.7873 11.4292 25.4414L11.4291 25.4415ZM27.7294 8.64741C26.4944 11.2406 23.4319 13.2164 20.7894 13.8339C18.295 14.4265 16.1216 13.9327 13.8248 14.8217C8.58903 16.8222 8.68784 23.0458 11.5527 24.4536L11.7255 24.5524C11.7255 24.5524 13.795 24.1409 15.8413 23.5975L16.0167 23.5507C16.834 23.3304 17.6381 23.0904 18.295 22.8483C21.7032 21.5888 25.4572 18.4769 26.692 14.8711C26.0499 18.625 22.8146 22.2555 19.5792 23.9103C17.8504 24.7993 16.5168 24.9969 13.6767 25.9848C13.3309 26.1083 13.0592 26.2318 13.0592 26.2318L13.1631 26.2178L13.2321 26.2089L13.3008 26.2002C13.928 26.1224 14.4916 26.0836 14.4916 26.0836C18.5172 25.886 24.8397 27.2197 27.7787 23.2929C30.7917 19.2919 29.1123 12.8213 27.7293 8.64741H27.7294Z" fill="#6DB33F"/>
<path d="M11.4293 25.4416C11.8492 25.7873 11.9232 26.4294 11.5774 26.874C11.2317 27.3185 10.5895 27.3679 10.145 27.0221C9.7005 26.6763 9.6511 26.0342 9.99685 25.5897C10.3426 25.1451 10.9847 25.0958 11.4293 25.4416H11.4293ZM27.7295 8.64746C29.1125 12.8213 30.7919 19.2919 27.7789 23.2929C24.8398 27.2197 18.5174 25.886 14.4918 26.0836C14.4918 26.0836 13.9282 26.1226 13.301 26.2003L13.2323 26.2089C13.1749 26.2162 13.1171 26.2239 13.0594 26.2319C13.0594 26.2319 13.3311 26.1083 13.6768 25.9848C16.517 24.997 17.8506 24.7994 19.5793 23.9103C22.8147 22.2556 26.05 18.6251 26.6921 14.8711C25.4573 18.477 21.7033 21.5888 18.2951 22.8483C15.9489 23.7127 11.7257 24.5524 11.7257 24.5524L11.5528 24.4536C8.688 23.0459 8.58919 16.8223 13.8249 14.8217C16.1218 13.9327 18.2951 14.4266 20.7896 13.8339C23.4322 13.2165 26.4946 11.2408 27.7295 8.64746Z" fill="white"/>
</g>
<defs>
<clipPath id="clip0_236_136">
<rect width="24" height="24" fill="white" transform="translate(6 6)"/>
</clipPath>
</defs>
</svg>
