<svg width="36" height="36" viewBox="0 0 36 36" fill="none" xmlns="http://www.w3.org/2000/svg">
<circle cx="18" cy="18" r="17.75" fill="white" stroke="#FF3E00" stroke-width="0.5"/>
<path d="M27.1617 8.9874C26.0145 7.41326 24.3231 6.32175 22.4161 5.92493C20.5091 5.52811 18.5228 5.8543 16.8428 6.84015L10.9655 10.4749C10.1777 10.9497 9.49906 11.5855 8.97415 12.3408C8.44924 13.0962 8.08987 13.9539 7.91958 14.8578C7.64016 16.3697 7.88721 17.9317 8.61958 19.2835C8.11768 20.0216 7.77472 20.8559 7.61246 21.7335C7.44543 22.6497 7.46796 23.5905 7.67865 24.4977C7.88934 25.4048 8.28372 26.2592 8.83746 27.008C9.98469 28.5823 11.676 29.6742 13.583 30.0716C15.49 30.469 17.4766 30.1437 19.1572 29.1588L25.0355 25.5249C25.823 25.0498 26.5014 24.4139 27.0263 23.6586C27.5512 22.9033 27.9107 22.0458 28.0813 21.142C28.3625 19.629 28.1154 18.0653 27.3813 16.7128C27.8838 15.9749 28.2271 15.1406 28.3893 14.2628C28.5563 13.3462 28.5335 12.4052 28.3224 11.4978C28.1112 10.5904 27.7162 9.73603 27.1617 8.9874Z" fill="#FF3E00"/>
<path d="M16.2696 27.3101C15.3506 27.5458 14.382 27.5001 13.4893 27.1788C12.5966 26.8576 11.8209 26.2757 11.2628 25.5085C10.9286 25.0587 10.6903 24.5452 10.5627 23.9996C10.435 23.454 10.4208 22.888 10.5208 22.3366C10.5541 22.1555 10.6006 21.9771 10.6599 21.8029L10.7711 21.4747L11.0721 21.683C11.7708 22.1806 12.5481 22.5575 13.3716 22.7977L13.5859 22.8616L13.5641 23.069C13.5389 23.3706 13.623 23.6713 13.8012 23.916C13.9686 24.1528 14.2043 24.333 14.4768 24.4324C14.7493 24.5318 15.0457 24.5458 15.3263 24.4725C15.4531 24.4395 15.5743 24.3879 15.6859 24.3194L21.5484 20.6846C21.6912 20.5981 21.8142 20.4826 21.9096 20.3456C22.005 20.2086 22.0706 20.0531 22.1023 19.8892C22.1338 19.724 22.1312 19.554 22.0944 19.3898C22.0577 19.2256 21.9877 19.0707 21.8888 18.9346C21.7205 18.7032 21.4865 18.5276 21.2173 18.4305C20.948 18.3335 20.6558 18.3195 20.3786 18.3904C20.2511 18.4234 20.1293 18.4753 20.0172 18.5444L17.7667 19.9304C17.3968 20.1593 16.9944 20.331 16.5732 20.4396C15.6535 20.6759 14.684 20.6304 13.7904 20.309C12.8969 19.9876 12.1205 19.4051 11.5621 18.6371C11.2301 18.1859 10.9943 17.6713 10.8692 17.1253C10.7441 16.5793 10.7325 16.0134 10.8349 15.4626C10.9382 14.9201 11.1543 14.4053 11.4692 13.9516C11.784 13.4979 12.1907 13.1154 12.6628 12.8289L18.5323 9.19412C18.9022 8.96549 19.3046 8.7941 19.7258 8.68575C20.6456 8.44892 21.6153 8.49408 22.509 8.81535C23.4028 9.13662 24.1793 9.71918 24.7378 10.4874C25.0719 10.9372 25.3102 11.4507 25.4378 11.9963C25.5655 12.5419 25.5798 13.1079 25.4798 13.6592C25.4466 13.8403 25.4001 14.0187 25.3407 14.193L25.2296 14.5211L24.9286 14.3137C24.2302 13.8154 23.4528 13.4386 22.6291 13.199L22.4147 13.1342L22.4366 12.9269C22.4617 12.6251 22.3772 12.3244 22.1986 12.0799C22.0307 11.8481 21.7969 11.6723 21.5277 11.5752C21.2585 11.4781 20.9663 11.4643 20.6892 11.5356C20.5622 11.5685 20.441 11.6204 20.3296 11.6896L14.4478 15.3121C14.305 15.3982 14.182 15.5135 14.0869 15.6504C13.9917 15.7873 13.9266 15.9428 13.8957 16.1066C13.8633 16.272 13.8656 16.4423 13.9023 16.6067C13.9391 16.7712 14.0095 16.9262 14.1092 17.0621C14.2776 17.2934 14.5116 17.4688 14.7809 17.5657C15.0501 17.6626 15.3422 17.6764 15.6194 17.6055C15.7467 17.5724 15.8685 17.5208 15.9808 17.4524L18.2226 16.0655C18.5923 15.8365 18.9947 15.6651 19.4161 15.5571C20.3358 15.3208 21.3054 15.3662 22.199 15.6874C23.0927 16.0086 23.8692 16.5909 24.4281 17.3587C24.7613 17.8089 24.9988 18.3227 25.1256 18.8682C25.2525 19.4138 25.2661 19.9796 25.1657 20.5306C25.0631 21.0737 24.8473 21.5892 24.5324 22.0434C24.2175 22.4976 23.8105 22.8805 23.3378 23.167L17.4692 26.8017C17.0994 27.0308 16.697 27.2022 16.2757 27.3101" fill="white"/>
</svg>
