<svg width="36" height="36" viewBox="0 0 36 36" fill="none" xmlns="http://www.w3.org/2000/svg">
<circle cx="18" cy="18" r="17.75" fill="white" stroke="#3178C6" stroke-width="0.5"/>
<g clip-path="url(#clip0_236_141)">
<path d="M18 6C24.6274 6 30 11.3726 30 18C30 24.6274 24.6274 30 18 30C11.3726 30 6 24.6274 6 18C6 11.3726 11.3726 6 18 6Z" fill="#3178C6"/>
<path d="M19.1684 21.0668V23.4133C19.545 23.6089 19.9903 23.7556 20.5043 23.8534C21.0185 23.9512 21.5603 24 22.13 24C22.6851 24 23.2125 23.9462 23.7121 23.8387C24.2117 23.7311 24.6498 23.5539 25.0263 23.307C25.4028 23.0602 25.7009 22.7375 25.9206 22.339C26.1402 21.9406 26.25 21.4481 26.25 20.8614C26.25 20.4361 26.1873 20.0633 26.0618 19.7431C25.938 19.4257 25.7535 19.1356 25.5187 18.8888C25.2821 18.6395 24.9985 18.4159 24.6679 18.2179C24.3372 18.0199 23.9643 17.8328 23.5492 17.6569C23.245 17.5297 22.9723 17.4063 22.7309 17.2866C22.4896 17.1667 22.2845 17.0446 22.1154 16.9199C21.9465 16.7952 21.8162 16.6632 21.7245 16.5239C21.6327 16.3846 21.5869 16.2269 21.5869 16.0509C21.5869 15.8896 21.6279 15.7442 21.71 15.6146C21.7921 15.4851 21.9079 15.3738 22.0575 15.2809C22.2072 15.1881 22.3906 15.1159 22.6078 15.0646C22.825 15.0133 23.0664 14.9876 23.3319 14.9876C23.5251 14.9876 23.729 15.0022 23.9437 15.0317C24.1586 15.0609 24.3746 15.1061 24.5918 15.1672C24.8085 15.2282 25.0203 15.3054 25.2254 15.3983C25.4246 15.4878 25.6149 15.5958 25.7938 15.7209V13.5283C25.4414 13.3914 25.0565 13.29 24.6389 13.224C24.2213 13.158 23.7423 13.125 23.2016 13.125C22.6513 13.125 22.13 13.1849 21.6376 13.3046C21.1452 13.4244 20.712 13.6115 20.3378 13.8656C19.9637 14.1199 19.6681 14.4437 19.4509 14.8372C19.2337 15.2308 19.125 15.7013 19.125 16.2489C19.125 16.948 19.3241 17.5444 19.7224 18.0382C20.1206 18.5319 20.7252 18.95 21.5363 19.2922C21.8357 19.4158 22.1326 19.5454 22.4269 19.6808C22.7019 19.8079 22.9397 19.9399 23.14 20.0767C23.3404 20.2137 23.4984 20.3628 23.6143 20.5241C23.7302 20.6855 23.7881 20.8687 23.7881 21.0741C23.7892 21.2217 23.7517 21.367 23.6795 21.4957C23.6071 21.6253 23.4973 21.7377 23.35 21.8331C23.2028 21.9284 23.0194 22.0029 22.7997 22.0568C22.5801 22.1105 22.323 22.1374 22.0286 22.1374C21.5266 22.1374 21.0293 22.0481 20.537 21.8697C20.0446 21.6913 19.5884 21.4237 19.1684 21.0668ZM15.1604 15.2383H18.1875V13.3125H9.75V15.2382H12.7624V23.8125H15.1603V15.2382L15.1604 15.2383Z" fill="white"/>
</g>
<defs>
<clipPath id="clip0_236_141">
<rect width="24" height="24" fill="white" transform="translate(6 6)"/>
</clipPath>
</defs>
</svg>
